<svg width="25" height="25" viewBox="0 0 25 25" fill="none" xmlns="http://www.w3.org/2000/svg">
<path fill-rule="evenodd" clip-rule="evenodd" d="M25 7.53044C25 3.37129 21.6281 0.00030233 17.4686 0.00030233L7.53075 0C3.37129 0 0 3.37129 0 7.53044L0.00030233 17.4702C0.00030233 21.629 3.37129 25.0006 7.53075 25.0006H17.4686C21.6284 25.0006 24.9997 21.629 24.9997 17.4702L25 7.53044ZM19.0767 4.60328C18.2644 4.60328 17.6068 5.26115 17.6068 6.07291C17.6068 6.88467 18.2641 7.54254 19.0767 7.54254C19.8885 7.54224 20.5452 6.88467 20.5452 6.07291C20.5455 5.26115 19.8885 4.60328 19.0767 4.60328ZM12.5425 6.4874C9.13763 6.4874 6.36798 9.25705 6.36798 12.6622C6.36829 16.0658 9.13763 18.8358 12.5425 18.8358C15.9467 18.8355 18.7155 16.0658 18.7155 12.6622C18.7155 9.25705 15.9467 6.48771 12.5425 6.4874Z" fill="#DC0B3F"/>
</svg>
