<svg width="20" height="20" viewBox="0 0 20 20" fill="none" xmlns="http://www.w3.org/2000/svg">
<path d="M9.98614 9.93065C12.7323 9.93065 14.9515 7.71151 14.9515 4.96533C14.9515 2.21914 12.7323 0 9.98614 0C7.23995 0 5.02081 2.21914 5.02081 4.96533C5.02081 7.71151 7.23995 9.93065 9.98614 9.93065ZM11.2344 8.48821C11.1512 8.51595 11.0957 8.51595 11.0125 8.54369L11.2344 8.48821Z" fill="#DC0B3F"/>
<path d="M13.9806 10.2081C13.7032 10.0695 13.3703 10.1804 13.2039 10.4578C12.5104 11.5951 11.3176 12.2886 9.98613 12.2886C8.65465 12.2886 7.46186 11.5951 6.76838 10.4578C6.62968 10.1804 6.26907 10.0695 5.99168 10.2081C2.35784 11.7893 0 15.3954 0 19.3621C0 19.695 0.277393 19.9724 0.610264 19.9724H19.362C19.6949 19.9724 20 19.695 20 19.3621C20 15.3954 17.6422 11.7893 13.9806 10.2081Z" fill="#DC0B3F"/>
</svg>
