<svg width="20" height="21" viewBox="0 0 20 21" fill="none" xmlns="http://www.w3.org/2000/svg">
<path d="M17.9245 12.1698C17.2327 12.0755 16.5409 11.9182 15.8805 11.7296C15.0314 11.478 14.1195 11.6981 13.522 12.2956L12.2327 13.5849C9.77987 12.2327 7.73585 10.2201 6.41509 7.7673L7.67296 6.47799C8.30189 5.84906 8.52201 4.96855 8.27044 4.1195C8.05031 3.45912 7.92453 2.7673 7.83019 2.07547C7.7044 0.880503 6.69811 0 5.50314 0H2.35849C1.69811 0 1.06918 0.251572 0.597484 0.754717C0.220126 1.19497 0 1.76101 0 2.35849C0 2.42138 0 2.48428 0 2.54717C0.220126 4.81132 0.81761 7.01258 1.79245 9.0566C2.73585 11.0377 4.02516 12.8616 5.56604 14.4025C7.13837 15.9748 8.93082 17.2642 10.9434 18.2075C12.9874 19.1824 15.1572 19.7799 17.4214 20C18.0818 20.0314 18.7421 19.8113 19.2453 19.3711C19.717 18.9308 20 18.3019 20 17.6415V14.4969C20 13.3019 19.1195 12.2956 17.9245 12.1698Z" fill="#DC0B3F"/>
</svg>
